<svg xmlns="http://www.w3.org/2000/svg" width="512" height="512" viewBox="188 192 612 347" preserveAspectRatio="xMidYMid meet" shape-rendering="geometricPrecision">
  <path d="M 577 430 L 557 465 L 557 474 L 589 530 L 595 537 L 600 539 L 698 538 L 706 532 L 736 479 L 736 472 L 732 469 L 639 469 L 631 464 L 613 432 L 605 424 L 590 422 L 582 425 Z M 405 192 L 400 196 L 400 201 L 430 254 L 435 256 L 439 253 L 461 213 L 468 202 L 468 195 L 463 192 Z" fill="#203663" fill-rule="evenodd"/>
  <path d="M 630 286 L 555 285 L 451 463 L 442 469 L 341 469 L 303 530 L 303 537 L 486 537 Z M 357 443 L 436 442 L 545 260 L 658 260 L 699 325 L 633 333 L 599 391 L 602 399 L 774 400 L 784 395 L 800 363 L 702 194 L 505 192 L 494 201 Z" fill="#236db9" fill-rule="evenodd"/>
  <path d="M 232 288 L 228 291 L 189 358 L 188 369 L 272 515 L 277 521 L 280 521 L 315 463 L 317 455 L 268 370 L 267 361 L 270 356 L 268 344 L 237 291 Z M 289 193 L 284 197 L 250 257 L 251 267 L 283 323 L 293 329 L 361 329 L 366 327 L 372 321 L 404 264 L 404 257 L 371 198 L 362 192 Z M 315 238 L 340 238 L 352 259 L 352 263 L 340 283 L 314 283 L 302 263 L 302 259 L 312 241 Z" fill="#56c0e5" fill-rule="evenodd"/>
</svg>
